<svg xmlns="http://www.w3.org/2000/svg" xmlns:xlink="http://www.w3.org/1999/xlink" width="48px" height="48px" viewBox="0 0 48 48" version="1.1">
    <!-- Generator: Sketch 53 (72520) - https://sketchapp.com/ -->
    <title>Pay/White/tele2</title>
    <desc>Created with Sketch.</desc>
    <g id="Pay/White/tele2" stroke="none" stroke-width="1" fill="none" fill-rule="evenodd">
        <path d="M4,21.282232 L4,23.447734 L9.872,22.8051426 L9.872,20.461316 L4,21.282232 M5.87385507,23.5794589 L5.87385507,31 L8.02365217,31 L8.02365217,23.3608786 L5.87385507,23.5794589 M10.6650435,20.3504687 L10.6650435,31 L12.9303188,31 L12.9303188,20.0336138 L10.6650435,20.3504687 M13.3523478,19.9745567 L13.3523478,22.4243861 L16.6234203,22.0663527 L16.6234203,19.517326 L13.3523478,19.9745567 M13.3523478,24.2477724 L13.3523478,26.7422406 L15.4995942,26.6257414 L15.4995942,24.0639112 L13.3523478,24.2477724 M13.3523478,28.5402509 L13.3523478,31 L16.6234203,31 L16.6234203,28.4420916 L13.3523478,28.5402509 M25.0827826,18.3307638 L25.0827826,31 L28.0524058,31 L28.0524058,17.9155189 L25.0827826,18.3307638 M28.6069565,17.8378912 L28.6069565,20.7521027 L32.9346087,20.2787236 L32.9346087,17.2326718 L28.6069565,17.8378912 M28.6069565,22.9437882 L28.6069565,25.9119816 L31.4434783,25.7578796 L31.4434783,22.7021388 L28.6069565,22.9437882 M28.6069565,28.0815207 L28.6069565,31 L32.9346087,31 L32.9346087,27.9515259 L28.6069565,28.0815207 M17.4889275,19.3960975 L17.4889275,31 L20.0693333,31 L20.0693333,19.0351805 L17.4889275,19.3960975 M20.5509565,28.3242082 L20.5509565,30.9998847 L24.2965797,30.9998847 L24.2965797,28.2117461 L20.5509565,28.3242082 M42.6369855,17.0894123 C41.6984348,16.2072477 40.3223188,15.8454079 38.8171594,16.0605278 L38.8171594,19.2927477 C39.4266667,19.2590667 39.9205797,19.4841064 40.1406377,19.9371847 C40.4881159,20.6515212 40.1296232,21.7233143 39.283942,22.7163263 C37.9786667,24.2486952 34.5077101,27.3851781 34.5077101,27.3851781 L39.4904348,27.2221945 C42.5349565,24.2631134 43.6282899,22.4669487 43.8244638,20.2252031 C43.9275362,19.0392177 43.4948406,17.8964868 42.6369855,17.0894123 M44,31 L44,27.6179459 L33.8935652,27.920844 M33.8935652,27.9207286 L33.8946087,30.9998847 L44,30.9998847 M38.2361739,16.1330803 C35.3001739,16.7551402 33.8584348,18.9040324 34.0248116,22.4104292 L37.1552464,22.1340607 C37.0126377,20.153112 37.6216812,19.6831932 38.2376812,19.4248186 L38.2361739,16.1330803" id="Shape" fill="#9298a8" fill-rule="nonzero"/>
    </g>
</svg>